<?xml version="1.0" standalone="no"?>
<!DOCTYPE svg PUBLIC "-//W3C//DTD SVG 20010904//EN"
 "http://www.w3.org/TR/2001/REC-SVG-20010904/DTD/svg10.dtd">
<svg version="1.0" xmlns="http://www.w3.org/2000/svg"
 width="512.000000pt" height="512.000000pt" viewBox="0 0 512.000000 512.000000"
 preserveAspectRatio="xMidYMid meet">
<metadata>
Created by potrace 1.11, written by Peter Selinger 2001-2013
</metadata>
<g transform="translate(0.000000,512.000000) scale(0.100000,-0.100000)"
fill="#000000" stroke="none">
<path d="M0 2560 l0 -2560 2560 0 2560 0 0 2560 0 2560 -2560 0 -2560 0 0
-2560z m4250 1359 c172 -21 382 -75 522 -133 l38 -16 -18 -43 c-100 -250 -169
-406 -177 -402 -250 112 -483 156 -701 134 -491 -50 -768 -478 -704 -1089 52
-491 325 -747 765 -716 100 8 241 24 268 32 16 5 17 27 17 285 l0 279 -250 0
-250 0 0 235 0 235 525 0 525 0 0 -693 0 -694 -112 -31 c-276 -78 -442 -102
-738 -109 -190 -4 -257 -2 -349 11 -387 57 -666 251 -831 576 -160 317 -204
834 -105 1225 131 516 519 840 1095 914 95 12 383 13 480 0z m-1920 -259 l0
-240 -365 0 -365 0 0 -1100 0 -1100 -285 0 -285 0 0 1100 0 1100 -362 2 -363
3 -3 225 c-1 123 0 230 2 237 4 10 207 13 1016 13 l1010 0 0 -240z"/>
</g>
</svg>
